<?xml version="1.0" encoding="utf-8"?>
<!-- Generator: Adobe Illustrator 26.4.0, SVG Export Plug-In . SVG Version: 6.00 Build 0)  -->
<svg version="1.1" id="Layer_1" xmlns="http://www.w3.org/2000/svg" xmlns:xlink="http://www.w3.org/1999/xlink" x="0px" y="0px"
	 viewBox="0 0 348.82001 83.2" style="enable-background:new 0 0 348.82001 83.2;" xml:space="preserve">
<style type="text/css">
	.st0{fill:#FFFFFF;}
</style>
<g id="Primary_Logo_REV">
	<path class="st0" d="M266,32.61001h-4.20001v8.12H266c3.07001,0,5-1.57,5-4.18C271.01001,34.12001,269.07001,32.61001,266,32.61001
		z M0,0v83.2h348.82001V0H0z M165.32001,76.11001H7.04v-69H165.27L165.32001,76.11001z M219.22,61.90001H205v-14.27h-11.31v14.27
		H179.48v-40.63H193.69v14.47H205v-14.47h14.22V61.90001z M240.51001,61.90001h-14.22v-40.63H240.5L240.51001,61.90001z
		 M271.36002,61.90001l-7.14001-10.73h-2.39001v10.73H247.59v-40.63h18.81c11.60001,0,18.82001,5.74,18.82001,15
		c0.21661,5.34554-2.78366,10.3027-7.62,12.59l8.92001,13L271.36002,61.90001z M327.55002,32.44001H306.22v4.17H324.12v10H306.22
		v4.17h21.31v11.14h-35.16998V21.27001h35.17999L327.55002,32.44001z"/>
	<path class="st0" d="M42.02,20.49001c-12.91,0-22.23,8.87001-22.23,21.17s9.32,21,22.17,21s22.25999-8.82,22.25999-21.12
		S54.92,20.49001,42.02,20.49001z M42.02,50.59001c-4.49,0-7.73-3.77-7.73-9s3.24-9,7.73-9s7.73,3.83,7.73,9.11
		S46.51,50.59001,42.02,50.59001z M89.57001,21.27001H71.33v40.6h14.21v-9.14h4.00001c11.53999,0,18.82001-6.09,18.82001-15.83
		S101.22,21.27001,89.57001,21.27001z M89.22,41.42001h-3.63v-8.81001h3.63c3.07001,0,5,1.62,5,4.41S92.22,41.42001,89.22,41.42001z
		 M114.05,21.27001v11.92H125.37v28.71H139.58v-28.71h11.48v-11.92H114.05z"/>
</g>
</svg>
